<svg xmlns="http://www.w3.org/2000/svg" viewBox="-8 -8 80 80" id="dbmigrator-logo">
	<desc>DBMigrator Logo</desc>
	<path fill="#964B11" fill-rule="evenodd" d="M35.0888 1.2525226666666667 40.92959999999999 0.29466666666666663c0.9106666666666667 -0.09533813333333332 1.9032 0.25187466666666664 2.4696 0.8183786666666666 0.7056 0.705576 1.1466666666666665 1.597168 1.1466666666666665 2.7436479999999994 0 1.6785066666666666 -1.2357333333333331 2.96304 -2.7207999999999997 3.207253333333333l-2.8138666666666663 0.18477333333333334c-0.5205333333333333 -0.03333333333333333 -1.0672 0.0017066666666666667 -1.6125333333333334 0.13807999999999998 -1.0042666666666666 0.25106666666666666 -1.6509333333333331 1.2269066666666666 -1.4909333333333334 2.2496 0.15999999999999998 1.0226933333333332 1.0741333333333332 1.7542133333333334 2.106933333333333 1.6864l0.9298666666666666 -0.061066666666666665c0.5831999999999999 0.09189333333333333 1.2461333333333333 0.4289333333333333 1.6829333333333332 0.8656799999999999 0.036 0.036186666666666666 0.0736 0.07098666666666667 0.11253333333333333 0.10429333333333332 0.48186666666666667 0.41290666666666664 0.8373333333333333 0.9587999999999999 1.0224 1.5634133333333333l-0.1016 0.06186666666666666 -7.6394666666666655 4.874826666666666 -2.4936 1.5912266666666666 -0.0002666666666666667 0.00002666666666666667c0.3368 -1.1898666666666666 0.5431999999999999 -2.3927466666666666 0.5602666666666667 -3.570373333333333 0.02853333333333333 -1.9712800000000001 -0.4864 -4.212053333333333 -2.2119999999999997 -5.9376 -1.3248 -1.32464 -2.9530666666666665 -1.9358666666666666 -4.529866666666667 -2.1355199999999996 1.8818666666666666 -4.062239999999999 5.3984 -6.846864 9.683733333333333 -7.418229333333334 0.019733333333333332 -0.0026453333333333333 0.039466666666666664 -0.0055839999999999996 0.0592 -0.008821333333333334Zm4.1088 18.921317333333334 4.573333333333333 -2.9182666666666663c3.4608 -2.1230933333333333 7.7392 -2.1342133333333333 11.239466666666667 -0.24952l6.6448 3.4806666666666666 0.0336 0.017173333333333332c0.7133333333333334 0.35672 1.2968 1.1263466666666666 1.4778666666666667 1.8508266666666666 0.15333333333333332 0.6129066666666666 0.018666666666666665 1.5576266666666667 -0.576 2.3753066666666665 -1.0290666666666666 1.2031466666666666 -2.4912 1.4835733333333332 -3.7469333333333332 0.7659466666666666 -0.018666666666666665 -0.010666666666666666 -0.037599999999999995 -0.021039999999999996 -0.05653333333333333 -0.031093333333333334l-5.168266666666666 -2.736133333333333c-0.0776 -0.04304 -0.15626666666666666 -0.08448 -0.236 -0.12426666666666666 -0.9797333333333333 -0.48991999999999997 -2.1714666666666664 -0.1004 -2.6727999999999996 0.8736799999999999 -0.5010666666666667 0.97408 -0.1256 2.1701866666666665 0.8426666666666667 2.6827466666666666l0.152 0.08048c0.6624 0.37768 1.1954666666666665 1.1050133333333334 1.3669333333333331 1.7919466666666666 0.15333333333333332 0.6128 0.018666666666666665 1.5575999999999999 -0.576 2.3752 -1.0288 1.2031999999999998 -2.4909333333333334 1.4834666666666667 -3.7469333333333332 0.7658666666666667l-0.011733333333333333 -0.0063999999999999994 -4.641333333333333 -2.6111999999999997c-0.15946666666666665 -0.09813333333333332 -0.3237333333333333 -0.18986666666666666 -0.492 -0.27413333333333334 -0.9709333333333332 -0.4853333333333333 -2.152 -0.10773333333333332 -2.6610666666666667 0.8512 -0.5087999999999999 0.9589333333333332 -0.15999999999999998 2.148533333333333 0.7861333333333334 2.6808l0.3189333333333333 0.17946666666666666c0.6053333333333333 0.3936 1.0839999999999999 1.0733333333333333 1.2450666666666665 1.7170666666666667 0.15306666666666666 0.6130666666666666 0.0184 1.5575999999999999 -0.5762666666666666 2.3754666666666666 -0.12853333333333333 0.15039999999999998 -0.264 0.2864 -0.40479999999999994 0.40773333333333334 -0.6309333333333333 0.5437333333333333 -1.3728 0.7954666666666667 -2.1128 0.7416 -0.41679999999999995 -0.03013333333333333 -0.8333333333333333 -0.15706666666666666 -1.2293333333333334 -0.3834666666666667 -0.018666666666666665 -0.010666666666666666 -0.03733333333333333 -0.021066666666666668 -0.05653333333333333 -0.03093333333333333l-2.3917333333333333 -1.2664 -2.9709333333333334 -1.5728c-0.9762666666666666 -0.5167999999999999 -2.1866666666666665 -0.14426666666666665 -2.7034666666666665 0.8317333333333333 -0.5167999999999999 0.9762666666666666 -0.14453333333333332 2.1866666666666665 0.8317333333333333 2.7034666666666665l2.450133333333333 1.2970666666666666c-1.0615999999999999 1.3144 -2.2496 2.6378666666666666 -3.5533333333333332 3.9415999999999998 -4.060053333333333 4.06 -8.313706666666667 6.997866666666667 -11.871386666666666 8.4952 -1.7831199999999998 0.7504 -3.2936533333333333 1.0973333333333333 -4.461893333333333 1.1101333333333332 -1.1530399999999998 0.012533333333333334 -1.8185866666666666 -0.29386666666666666 -2.208053333333333 -0.6834666666666666 -0.03336 -0.03333333333333333 -0.06762666666666667 -0.06533333333333333 -0.10269333333333333 -0.09573333333333334l-7.314426666666667 -7.3144c1.94 -0.036 3.9471733333333328 -0.5834666666666666 5.850639999999999 -1.3781333333333334 3.8555200000000003 -1.6098666666666666 8.06424 -4.560266666666666 11.87256 -8.3688 2.38264 -2.3826666666666663 4.4296533333333326 -4.921866666666666 6.022453333333333 -7.433333333333334l0.3016 -0.19253333333333333 6.3712 -4.0654933333333325 1.8823999999999999 -1.20128 2.279733333333333 -1.4545866666666667ZM19.511813333333333 31.692533333333333C26.5768 24.627626666666664 29.950666666666667 16.546773333333334 27.047199999999997 13.643519999999999c-2.9031466666666668 -2.903253333333333 -10.983999999999998 0.4705066666666667 -18.04901333333333 7.53552C1.9331973333333332 28.244 -1.440568 36.324799999999996 1.4626826666666668 39.22826666666666c2.903264 2.9032 10.984117333333332 -0.4706666666666666 18.049130666666667 -7.535733333333333ZM50.64693333333333 35.552c0.5559999999999999 0.9248 0.7797333333333333 2.0154666666666667 0.7672 3.1456 -0.016266666666666665 1.5082666666666666 -0.4485333333333333 3.1839999999999997 -1.1741333333333333 4.9079999999999995 -1.4533333333333334 3.4536 -4.1946666666666665 7.362666666666667 -7.823466666666667 10.991466666666668 -3.6290666666666667 3.6288 -7.537866666666667 6.3704 -10.991733333333332 7.823733333333333 -1.7239999999999998 0.7256 -3.399733333333333 1.1578666666666666 -4.907946666666666 1.1741333333333333 -1.5182933333333333 0.01653333333333333 -2.9657066666666663 -0.3927999999999999 -4.035173333333333 -1.4624l-6.0064 -6.0064c1.22416 -0.23786666666666667 2.4961866666666666 -0.6474666666666666 3.7803466666666665 -1.188 4.151626666666666 -1.7469333333333332 8.82384 -5.029066666666666 13.148106666666665 -9.353333333333332 1.5951999999999997 -1.5951999999999997 3.0485333333333333 -3.2375999999999996 4.3351999999999995 -4.883733333333333 2.948266666666666 1.2597333333333331 6.128 0.2538666666666667 8.084 -2.0933333333333333 0.021866666666666666 -0.0264 0.043199999999999995 -0.053066666666666665 0.06346666666666667 -0.08053333333333333 0.8013333333333332 -1.0682666666666667 1.2922666666666665 -2.331733333333333 1.4272 -3.595466666666667 1.0992 0.5112 2.2359999999999998 0.7016 3.333333333333333 0.6202666666666666Z" clip-rule="evenodd" stroke-width="1"/>
</svg>